<?xml version="1.0" encoding="utf-8"?>
<!-- Generator: Adobe Illustrator 15.0.2, SVG Export Plug-In . SVG Version: 6.00 Build 0)  -->
<!DOCTYPE svg PUBLIC "-//W3C//DTD SVG 1.1//EN" "http://www.w3.org/Graphics/SVG/1.1/DTD/svg11.dtd">
<svg version="1.1" class="Layer_1" xmlns="http://www.w3.org/2000/svg" xmlns:xlink="http://www.w3.org/1999/xlink" x="0px" y="0px" viewBox="0 0 605.916 252" enable-background="new 0 0 605.916 252" xml:space="preserve">
<g class="rect">
    <path fill="#fff" d="M358.393,61.709V0l-187.58,61.709H0V252h605.916V61.709H358.393z"></path>
</g>
<g class="letters">
    <path fill="#FC6C00" d="M78.159,103.341L41.631,210.369h27.848l6.471-19.646h38.268l6.51,19.646h28.541l-36.528-107.029H78.159z
        M83.762,166.861l10.405-34.376h2.211l10.334,34.376H83.762z"></path>
    <polygon fill="#FC6C00" points="169.323,210.369 249.696,210.369 249.696,186.699 198.233,186.699 198.233,167.479
        243.457,167.479 243.457,145.229 198.233,145.229 198.233,127.011 249.696,127.011 249.696,103.341 169.323,103.341 	"></polygon>
    <polygon fill="#FC6C00" points="278.02,210.369 358.393,210.369 358.393,186.699 306.93,186.699 306.93,167.479 352.153,167.479
        352.153,145.229 306.93,145.229 306.93,127.011 358.393,127.011 358.393,103.341 278.02,103.341 	"></polygon>
    <polygon fill="#FC6C00" points="379.245,127.011 407.209,127.011 407.209,210.369 434.424,210.369 434.424,127.011 462.39,127.011
        462.39,103.341 379.245,103.341 	"></polygon>
    <path fill="#FC6C00" d="M525.742,143.423c-11.062-2.458-20.368-4.038-20.368-10.711c0-4.565,4.39-7.726,12.466-7.726
        c6.848,0,18.261,2.283,29.146,8.077l8.428-21.772c-11.588-5.794-24.055-9.481-35.995-9.481c-22.65,0-40.735,12.817-40.735,34.063
        c0,23.001,21.421,29.322,35.819,32.834c13.871,3.336,22.475,4.916,22.475,12.115c0,5.794-5.619,7.55-13.696,7.55
        c-17.031,0-32.482-8.252-37.75-11.588l-9.657,21.597c8.779,5.619,24.933,13.52,44.773,13.52c24.582,0,43.018-11.237,43.018-33.887
        C563.668,156.943,547.865,148.515,525.742,143.423z"></path>
</g>
</svg>
